HIERARCHY
ROOT reference
{
  OFFSET 0 0 0
  CHANNELS 6 Xposition Yposition Zposition Zrotation Xrotation Yrotation
  JOINT Hips
  {
    OFFSET 347.352 87.9396 215.108
    CHANNELS 3 Zrotation Xrotation Yrotation
    JOINT RightUpLeg
    {
      OFFSET -9.26448 -1.5905 0.0349838
      CHANNELS 3 Zrotation Xrotation Yrotation
      JOINT RightLeg
      {
        OFFSET 0.0309074 -41.8937 0.0182011
        CHANNELS 3 Zrotation Xrotation Yrotation
        JOINT RightFoot
        {
          OFFSET 0.355296 -42.3801 0.810868
          CHANNELS 3 Zrotation Xrotation Yrotation
          End Site
          {
            OFFSET 0 -7.69 17.5
          }
        }
      }
    }
    JOINT LeftUpLeg
    {
      OFFSET 9.27369 -1.59127 -0.0547904
      CHANNELS 3 Zrotation Xrotation Yrotation
      JOINT LeftLeg
      {
        OFFSET 0.0553589 -41.8938 0.0587288
        CHANNELS 3 Zrotation Xrotation Yrotation
        JOINT LeftFoot
        {
          OFFSET 0.217916 -41.5497 -0.688939
          CHANNELS 3 Zrotation Xrotation Yrotation
          End Site
          {
            OFFSET 0 -7.69 17.5
          }
        }
      }
    }
    JOINT Spine
    {
      OFFSET 0.0383554 14.2988 0.0402393
      CHANNELS 3 Zrotation Xrotation Yrotation
      JOINT Spine1
      {
        OFFSET 0.0188251 9.70742 0.0136471
        CHANNELS 3 Zrotation Xrotation Yrotation
        JOINT Spine2
        {
          OFFSET 0.0421292 10.115 0.0126686
          CHANNELS 3 Zrotation Xrotation Yrotation
          JOINT Spine3
          {
            OFFSET 0.0499826 9.71803 0.0151296
            CHANNELS 3 Zrotation Xrotation Yrotation
            JOINT Neck
            {
              OFFSET 0.04654 10.3867 0.0448026
              CHANNELS 3 Zrotation Xrotation Yrotation
              JOINT Head
              {
                OFFSET 0.0370611 9.47282 0.0189897
                CHANNELS 3 Zrotation Xrotation Yrotation
                End Site
                {
                  OFFSET 0 15.95 0
                }
              }
            }
            JOINT RightShoulder
            {
              OFFSET -3.19309 6.93146 -0.00624137
              CHANNELS 3 Zrotation Xrotation Yrotation
              JOINT RightArm
              {
                OFFSET -12.7764 0.00688168 -0.00548706
                CHANNELS 3 Zrotation Xrotation Yrotation
                JOINT RightForeArm
                {
                  OFFSET -26.5073 -0.0244096 0.0677859
                  CHANNELS 3 Zrotation Xrotation Yrotation
                  JOINT RightHand
                  {
                    OFFSET -26.0056 -0.000416843 0.0508974
                    CHANNELS 3 Zrotation Xrotation Yrotation
                    JOINT RightHandThumb1
                    {
                      OFFSET -2.48905 0.190105 3.12053
                      CHANNELS 3 Zrotation Xrotation Yrotation
                      JOINT RightHandThumb2
                      {
                        OFFSET -3.68274 0 0
                        CHANNELS 3 Zrotation Xrotation Yrotation
                        JOINT RightHandThumb3
                        {
                          OFFSET -2.55832 0 0
                          CHANNELS 3 Zrotation Xrotation Yrotation
                          End Site
                          {
                            OFFSET -2.194 0 0
                          }
                        }
                      }
                    }
                    JOINT RightInHandIndex
                    {
                      OFFSET -3.22368 0.508421 1.97842
                      CHANNELS 3 Zrotation Xrotation Yrotation
                      JOINT RightHandIndex1
                      {
                        OFFSET -5.21684 -0.091368 0.999158
                        CHANNELS 3 Zrotation Xrotation Yrotation
                        JOINT RightHandIndex2
                        {
                          OFFSET -3.61937 0 0
                          CHANNELS 3 Zrotation Xrotation Yrotation
                          JOINT RightHandIndex3
                          {
                            OFFSET -2.0521 0 0
                            CHANNELS 3 Zrotation Xrotation Yrotation
                            End Site
                            {
                              OFFSET -1.805 0 0
                            }
                          }
                        }
                      }
                    }
                    JOINT RightInHandMiddle
                    {
                      OFFSET -3.38211 0.517263 0.756737
                      CHANNELS 3 Zrotation Xrotation Yrotation
                      JOINT RightHandMiddle1
                      {
                        OFFSET -5.17411 -0.084 0.313895
                        CHANNELS 3 Zrotation Xrotation Yrotation
                        JOINT RightHandMiddle2
                        {
                          OFFSET -3.94947 0 0
                          CHANNELS 3 Zrotation Xrotation Yrotation
                          JOINT RightHandMiddle3
                          {
                            OFFSET -2.47579 0 0
                            CHANNELS 3 Zrotation Xrotation Yrotation
                            End Site
                            {
                              OFFSET -1.975 0 0
                            }
                          }
                        }
                      }
                    }
                    JOINT RightInHandRing
                    {
                      OFFSET -3.36516 0.537895 -0.128947
                      CHANNELS 3 Zrotation Xrotation Yrotation
                      JOINT RightHandRing1
                      {
                        OFFSET -4.63474 -0.022105 -0.478947
                        CHANNELS 3 Zrotation Xrotation Yrotation
                        JOINT RightHandRing2
                        {
                          OFFSET -3.44238 0 0
                          CHANNELS 3 Zrotation Xrotation Yrotation
                          JOINT RightHandRing3
                          {
                            OFFSET -2.3881 0 0
                            CHANNELS 3 Zrotation Xrotation Yrotation
                            End Site
                            {
                              OFFSET -1.857 0 0
                            }
                          }
                        }
                      }
                    }
                    JOINT RightInHandPinky
                    {
                      OFFSET -3.16105 0.469368 -1.20179
                      CHANNELS 3 Zrotation Xrotation Yrotation
                      JOINT RightHandPinky1
                      {
                        OFFSET -4.14105 -0.022105 -1.09053
                        CHANNELS 3 Zrotation Xrotation Yrotation
                        JOINT RightHandPinky2
                        {
                          OFFSET -2.75653 0 0
                          CHANNELS 3 Zrotation Xrotation Yrotation
                          JOINT RightHandPinky3
                          {
                            OFFSET -1.74189 0 0
                            CHANNELS 3 Zrotation Xrotation Yrotation
                            End Site
                            {
                              OFFSET -1.645 0 0
                            }
                          }
                        }
                      }
                    }
                  }
                }
              }
            }
            JOINT LeftShoulder
            {
              OFFSET 3.25131 6.94393 -0.0111894
              CHANNELS 3 Zrotation Xrotation Yrotation
              JOINT LeftArm
              {
                OFFSET 12.7762 -0.0164608 -0.057961
                CHANNELS 3 Zrotation Xrotation Yrotation
                JOINT LeftForeArm
                {
                  OFFSET 26.494 -0.0292415 -0.00751187
                  CHANNELS 3 Zrotation Xrotation Yrotation
                  JOINT LeftHand
                  {
                    OFFSET 26.0005 -0.052199 0.00178648
                    CHANNELS 3 Zrotation Xrotation Yrotation
                    JOINT LeftHandThumb1
                    {
                      OFFSET 2.48905 0.190105 3.12053
                      CHANNELS 3 Zrotation Xrotation Yrotation
                      JOINT LeftHandThumb2
                      {
                        OFFSET 3.68274 0 0
                        CHANNELS 3 Zrotation Xrotation Yrotation
                        JOINT LeftHandThumb3
                        {
                          OFFSET 2.55832 0 0
                          CHANNELS 3 Zrotation Xrotation Yrotation
                          End Site
                          {
                            OFFSET 2.194 0 0
                          }
                        }
                      }
                    }
                    JOINT LeftInHandIndex
                    {
                      OFFSET 3.22368 0.508421 1.97842
                      CHANNELS 3 Zrotation Xrotation Yrotation
                      JOINT LeftHandIndex1
                      {
                        OFFSET 5.21684 -0.091368 0.999158
                        CHANNELS 3 Zrotation Xrotation Yrotation
                        JOINT LeftHandIndex2
                        {
                          OFFSET 3.61937 0 0
                          CHANNELS 3 Zrotation Xrotation Yrotation
                          JOINT LeftHandIndex3
                          {
                            OFFSET 2.0521 0 0
                            CHANNELS 3 Zrotation Xrotation Yrotation
                            End Site
                            {
                              OFFSET 1.805 0 0
                            }
                          }
                        }
                      }
                    }
                    JOINT LeftInHandMiddle
                    {
                      OFFSET 3.38211 0.517263 0.756737
                      CHANNELS 3 Zrotation Xrotation Yrotation
                      JOINT LeftHandMiddle1
                      {
                        OFFSET 5.17411 -0.084 0.313895
                        CHANNELS 3 Zrotation Xrotation Yrotation
                        JOINT LeftHandMiddle2
                        {
                          OFFSET 3.94947 0 0
                          CHANNELS 3 Zrotation Xrotation Yrotation
                          JOINT LeftHandMiddle3
                          {
                            OFFSET 2.47579 0 0
                            CHANNELS 3 Zrotation Xrotation Yrotation
                            End Site
                            {
                              OFFSET 1.975 0 0
                            }
                          }
                        }
                      }
                    }
                    JOINT LeftInHandRing
                    {
                      OFFSET 3.36516 0.537895 -0.128947
                      CHANNELS 3 Zrotation Xrotation Yrotation
                      JOINT LeftHandRing1
                      {
                        OFFSET 4.63474 -0.022105 -0.478947
                        CHANNELS 3 Zrotation Xrotation Yrotation
                        JOINT LeftHandRing2
                        {
                          OFFSET 3.44238 0 0
                          CHANNELS 3 Zrotation Xrotation Yrotation
                          JOINT LeftHandRing3
                          {
                            OFFSET 2.3881 0 0
                            CHANNELS 3 Zrotation Xrotation Yrotation
                            End Site
                            {
                              OFFSET 1.857 0 0
                            }
                          }
                        }
                      }
                    }
                    JOINT LeftInHandPinky
                    {
                      OFFSET 3.16105 0.469368 -1.20179
                      CHANNELS 3 Zrotation Xrotation Yrotation
                      JOINT LeftHandPinky1
                      {
                        OFFSET 4.14105 -0.022105 -1.09053
                        CHANNELS 3 Zrotation Xrotation Yrotation
                        JOINT LeftHandPinky2
                        {
                          OFFSET 2.75653 0 0
                          CHANNELS 3 Zrotation Xrotation Yrotation
                          JOINT LeftHandPinky3
                          {
                            OFFSET 1.74189 0 0
                            CHANNELS 3 Zrotation Xrotation Yrotation
                            End Site
                            {
                              OFFSET 1.645 0 0
                            }
                          }
                        }
                      }
                    }
                  }
                }
              }
            }
          }
        }
      }
    }
  }
}
MOTION
Frames: 2
Frame Time: 0.00833333
1.500000000000000000e+02 0.000000000000000000e+00 0.000000000000000000e+00 0.000000000000000000e+00 0.000000000000000000e+00 -0.000000000000000000e+00 9.599647319222731146e-04 -9.797180021594792745e-04 2.016317147130040465e-03 1.000133271328367815e-03 7.443749181971787837e-03 -1.198832268308930478e-02 -1.615812725357500951e-03 -3.240483233306779443e-03 1.001569205947995360e-02 -1.880744840120196341e-04 -4.078830488680734202e-03 4.940741935104167289e-04 -8.952703864163479713e-03 -3.729436125313953260e-03 -1.251779125158956722e-02 6.589788180445752810e-04 6.533104292956004588e-03 8.015640124947581019e-04 2.229658694013425969e-03 -8.182692448717001146e-03 5.222808711985875429e-03 2.773790753416122395e-03 6.337959222875257960e-04 -6.193566518775941651e-03 9.843518110390472907e-05 -1.662925702825898276e-04 -6.704922655414636721e-04 2.545141627951437490e-04 1.530275473636882530e-04 -2.345633468329574953e-03 -1.349973392298778496e-05 5.717357884134767303e-05 -6.773754404866162292e-05 -2.254324166465919825e-05 5.307894139157612475e-05 -6.884731389722491745e-05 -4.334975763914398345e-03 7.133601790607814073e-04 3.247086316095462027e-03 -9.866966617017084579e-03 1.782773290759713048e-03 6.066304545683773135e-03 4.378969452936361077e-03 -8.847255467129399448e-03 3.070125119358663949e-03 -2.460799263752391774e-02 6.098096177923861307e-03 -3.223993766522710580e-02 7.286353452128338862e-03 6.044972029365551676e-03 3.032850763561405639e-03 0.000000000000000000e+00 0.000000000000000000e+00 0.000000000000000000e+00 3.615643724467424262e-16 -7.016034571004001125e-16 0.000000000000000000e+00 -1.814529379944153023e-15 -1.805701090149644879e-15 0.000000000000000000e+00 8.506370058643147609e-16 2.388310393951927959e-15 -4.225762459411000762e-15 0.000000000000000000e+00 0.000000000000000000e+00 0.000000000000000000e+00 0.000000000000000000e+00 4.813497659432724057e-15 1.055780595234637862e-14 0.000000000000000000e+00 3.490336734055206171e-15 2.667587046437160764e-15 8.506370058643147609e-16 2.388310393951927959e-15 -4.225762459411000762e-15 0.000000000000000000e+00 4.706398966652171648e-15 4.887191149500369652e-15 0.000000000000000000e+00 7.353231413680178430e-16 1.126941280936174578e-14 0.000000000000000000e+00 -3.762003074176869233e-16 1.820801577376250637e-15 8.506370058643147609e-16 2.388310393951927959e-15 -4.225762459411000762e-15 0.000000000000000000e+00 0.000000000000000000e+00 0.000000000000000000e+00 0.000000000000000000e+00 2.082402643351795925e-16 1.397555328685098665e-15 0.000000000000000000e+00 3.667863980773522076e-16 4.660415026785612114e-15 8.506370058643147609e-16 2.388310393951927959e-15 -4.225762459411000762e-15 0.000000000000000000e+00 0.000000000000000000e+00 0.000000000000000000e+00 0.000000000000000000e+00 -2.529529569430349720e-15 3.787047723352812963e-15 0.000000000000000000e+00 3.792581118657326775e-15 8.421051849475653919e-15 -8.995765596016752630e-03 -1.204837485465268298e-03 4.569377030275018937e-03 1.258704883295322895e-02 7.355559956781184891e-03 -1.251314161599654737e-02 2.472992282980763026e-02 -3.077819734818726047e-02 2.197504831511742918e-02 2.199782337072785088e-02 2.614784807651075391e-02 7.568343295959495572e-03 0.000000000000000000e+00 0.000000000000000000e+00 0.000000000000000000e+00 -3.246669877764086553e-15 -8.261150100663337482e-16 0.000000000000000000e+00 -1.191890571180887327e-15 -1.998577597468357867e-15 0.000000000000000000e+00 -2.264059903089952755e-15 6.622688954852536979e-16 2.034539522809049088e-15 0.000000000000000000e+00 0.000000000000000000e+00 0.000000000000000000e+00 0.000000000000000000e+00 2.747445348256853420e-15 9.163561571006800555e-16 0.000000000000000000e+00 4.780288991337592234e-17 -5.055882624126314999e-16 -2.264059903089952755e-15 6.622688954852536979e-16 2.034539522809049088e-15 0.000000000000000000e+00 5.173232257878452507e-16 4.896388173414110527e-15 0.000000000000000000e+00 8.283835774917826426e-16 -4.504717153969609094e-16 0.000000000000000000e+00 4.581348492061580356e-15 1.291116212125288758e-15 -2.264059903089952755e-15 6.622688954852536979e-16 2.034539522809049088e-15 0.000000000000000000e+00 0.000000000000000000e+00 0.000000000000000000e+00 0.000000000000000000e+00 -8.328392528027109034e-17 3.924590164858640966e-15 0.000000000000000000e+00 -7.468884108465189304e-16 5.198826584359073328e-15 -2.264059903089952755e-15 6.622688954852536979e-16 2.034539522809049088e-15 0.000000000000000000e+00 0.000000000000000000e+00 0.000000000000000000e+00 0.000000000000000000e+00 -1.074412232949339048e-16 -1.749245891265780300e-15 0.000000000000000000e+00 -8.766766090058339989e-16 -1.541916637561275985e-15
1.500000000000000000e+02 0.000000000000000000e+00 0.000000000000000000e+00 0.000000000000000000e+00 0.000000000000000000e+00 -0.000000000000000000e+00 -1.904667753827000033e-03 3.179342126267274780e-03 9.129057003545229532e-04 1.307747462691671002e-04 -2.400549546066322454e-03 4.572617195556715093e-03 3.180321815224562178e-03 1.054531922313759699e-03 -5.953412464538116247e-03 -1.124943749524942973e-03 1.354841777984424353e-03 -2.218935014236597257e-04 5.240305515649790885e-03 7.048161201568761301e-04 2.405440996004810320e-03 -7.703729513712565848e-04 -2.272727891356284349e-03 -1.151287192138066332e-04 -1.065800460960230755e-04 2.818770430023760914e-03 -1.282709201752248738e-03 8.823404862730478823e-04 9.294876159316859440e-05 2.202228008155016244e-03 7.419927799130308011e-06 1.006475437055341003e-04 3.198691593186846790e-04 7.254632111268223233e-06 1.916781118426691356e-04 1.024875887027384448e-03 1.175630205805388828e-05 1.637016820076553507e-05 2.638521051527458050e-05 -3.187052951103943113e-05 1.776495360751831991e-05 2.664880003005022315e-05 1.253987250794323270e-03 8.854804111517943725e-05 -2.484629494187848980e-03 5.201512675049877257e-03 -1.672738180322094715e-03 -4.899655564742988641e-03 -2.615757348673340005e-03 5.913536407501942399e-03 -1.354188092302155812e-03 2.004797669553044781e-02 3.061732123410310352e-03 2.563394157121414579e-02 -9.595449668491530179e-03 -9.173961752454733512e-03 -4.391852783341736004e-03 0.000000000000000000e+00 0.000000000000000000e+00 0.000000000000000000e+00 -3.676060283983931346e-15 -1.399702503754293561e-15 0.000000000000000000e+00 -2.933308167550751629e-15 -1.593275707168900396e-15 0.000000000000000000e+00 1.003999509068166570e-15 -2.429925053801139414e-15 2.595474249269285216e-15 0.000000000000000000e+00 0.000000000000000000e+00 0.000000000000000000e+00 0.000000000000000000e+00 -2.474192435319478838e-15 -1.116876583177445209e-14 0.000000000000000000e+00 -5.448516211713956832e-15 -1.190093598567578677e-14 1.003999509068166570e-15 -2.429925053801139414e-15 2.595474249269285216e-15 0.000000000000000000e+00 -1.755037224829596306e-15 -4.998449659000671657e-15 0.000000000000000000e+00 -2.547249067444864437e-15 -1.072135213096013698e-14 0.000000000000000000e+00 -1.934554670121313985e-15 -1.076757232895429183e-14 1.003999509068166570e-15 -2.429925053801139414e-15 2.595474249269285216e-15 0.000000000000000000e+00 0.000000000000000000e+00 0.000000000000000000e+00 0.000000000000000000e+00 -8.678658842518058514e-16 -2.054380994764088665e-15 0.000000000000000000e+00 5.259580621427146654e-16 -7.925327934402420627e-15 1.003999509068166570e-15 -2.429925053801139414e-15 2.595474249269285216e-15 0.000000000000000000e+00 0.000000000000000000e+00 0.000000000000000000e+00 0.000000000000000000e+00 7.870690990773379830e-16 -6.261607191301133876e-15 0.000000000000000000e+00 -4.156024751668250666e-15 -1.360685562305891504e-14 3.859922162380398196e-03 1.931253426134710597e-04 -2.133035347651782501e-03 -8.264625866078092326e-03 -5.075578096998294673e-03 9.518739143588373849e-03 -2.545735331173621177e-02 2.030047377586996840e-02 -2.358587637235601969e-02 -1.740658567463410859e-03 -3.304822404712751387e-03 3.138390920757826337e-03 0.000000000000000000e+00 0.000000000000000000e+00 0.000000000000000000e+00 4.268438777339520663e-15 3.490878762441876594e-15 0.000000000000000000e+00 3.541921867791646446e-15 3.541479300935670128e-15 0.000000000000000000e+00 3.484109493332633042e-15 -7.435282782747170128e-16 -3.521550891017154134e-15 0.000000000000000000e+00 0.000000000000000000e+00 0.000000000000000000e+00 0.000000000000000000e+00 -1.185875373534806731e-15 -9.433718457723447678e-16 0.000000000000000000e+00 3.244042773600222281e-16 1.667601164456208110e-15 3.484109493332633042e-15 -7.435282782747170128e-16 -3.521550891017154134e-15 0.000000000000000000e+00 -2.249306894064901270e-15 -3.019265749960300405e-15 0.000000000000000000e+00 8.796594031342829835e-17 3.437673554460153943e-15 0.000000000000000000e+00 -3.470869406877234589e-15 3.260514312866329862e-15 3.484109493332633042e-15 -7.435282782747170128e-16 -3.521550891017154134e-15 0.000000000000000000e+00 0.000000000000000000e+00 0.000000000000000000e+00 0.000000000000000000e+00 6.147160210932255153e-16 -2.134131871447416867e-15 0.000000000000000000e+00 7.481274619555665158e-16 -5.114036468354757626e-15 3.484109493332633042e-15 -7.435282782747170128e-16 -3.521550891017154134e-15 0.000000000000000000e+00 0.000000000000000000e+00 0.000000000000000000e+00 0.000000000000000000e+00 8.975981606381546423e-17 3.208377657943596514e-15 0.000000000000000000e+00 -1.545593215064520883e-16 6.390663341178890090e-15
